# Aspose.3D Wavefront OBJ Exporter
# Copyright 2004-2023 Aspose Pty Ltd.
# File created: 07/03/2023 17:31:27


#
# object obj_13616963
#

v 776.4000244140625 4 4
v 774.4000244140625 0 4
v 866.95001220703124992 4 4
v 868.95001220703124992 0 4
v 866.95001220703124992 22.71999931335449216 4
v 868.95001220703124992 26.71999931335449216 4
v 776.4000244140625 22.71999931335449216 4
v 774.4000244140625 26.71999931335449216 4
v 679.8499755859375 4 4
v 677.8499755859375 0 4
v 770.4000244140625 4 4
v 772.4000244140625 0 4
v 770.4000244140625 22.71999931335449216 4
v 772.4000244140625 26.71999931335449216 4
v 679.8499755859375 22.71999931335449216 4
v 677.8499755859375 26.71999931335449216 4
v 583.29998779296875 4 4
v 581.29998779296875 0 4
v 673.8499755859375 4 4
v 675.8499755859375 0 4
v 673.8499755859375 22.71999931335449216 4
v 675.8499755859375 26.71999931335449216 4
v 583.29998779296875 22.71999931335449216 4
v 581.29998779296875 26.71999931335449216 4
v 870.95001220703124992 26.71999931335449216 4
v 870.95001220703124992 26.71999931335449216 0
v 868.95001220703124992 26.71999931335449216 0
v 773.4000244140625 26.71999931335449216 0
v 676.8499755859375 26.71999931335449216 0
v 580.29998779296875 26.71999931335449216 0
v 579.29998779296875 26.71999931335449216 4
v 870.95001220703124992 7.07679986953735352 11.45569992065429688
v 870.95001220703124992 6.04180002212524414 12.57450008392333984
v 870.95001220703124992 0 0
v 870.95001220703124992 5.08239984512329102 13.77649974822998048
v 870.95001220703124992 2 0
v 870.95001220703124992 9.38179969787597656 9.4538002014160156
v 870.95001220703124992 8.18920040130615236 10.4165000915527344
v 870.95001220703124992 4.19740009307861328 15.06639957427978516
v 870.95001220703124992 3.3868000507354736 16.4493999481201172
v 870.95001220703124992 0 19.5
v 870.95001220703124992 2.651400089263916 17.93120002746582032
v 870.95001220703124992 2 19.5
v 870.95001220703124992 18.0167999267578125 5.34929990768432616
v 870.95001220703124992 16.27239990234375 5.8863000869750976
v 870.95001220703124992 14.63790035247802736 6.49949979782104496
v 870.95001220703124992 13.10690021514892578 7.1868000030517578
v 870.95001220703124992 11.67169952392578128 7.94810009002685552
v 870.95001220703124992 10.65799999237060544 8.56550025939941408
v 870.95001220703124992 21.86490058898925776 4.5155000686645508
v 870.95001220703124992 19.87849998474121088 4.89120006561279296
v 870.95001220703124992 26.171600341796875 4.03319978713989258
v 870.95001220703124992 23.98410034179687504 4.22620010375976564
v 772.4000244140625 0 19.5
v 774.4000244140625 0 19.5
v 868.95001220703124992 0 19.5
v 868.95001220703124992 0 0
v 773.4000244140625 0 0
v 676.8499755859375 0 0
v 677.8499755859375 0 19.5
v 675.8499755859375 0 19.5
v 581.29998779296875 0 19.5
v 579.29998779296875 0 19.5
v 580.29998779296875 0 0
v 579.29998779296875 0 4
v 673.8499755859375 4 0
v 676.8499755859375 2 0
v 583.29998779296875 4 0
v 580.29998779296875 2 0
v 583.29998779296875 22.71999931335449216 0
v 673.8499755859375 22.71999931335449216 0
v 770.4000244140625 4 0
v 773.4000244140625 2 0
v 679.8499755859375 4 0
v 679.8499755859375 22.71999931335449216 0
v 770.4000244140625 22.71999931335449216 0
v 866.95001220703124992 4 0
v 868.95001220703124992 2 0
v 776.4000244140625 4 0
v 776.4000244140625 22.71999931335449216 0
v 866.95001220703124992 22.71999931335449216 0
v 675.8499755859375 4.19740009307861328 15.06639957427978516
v 675.8499755859375 5.08239984512329102 13.77649974822998048
v 675.8499755859375 3.3868000507354736 16.4493999481201172
v 675.8499755859375 6.04180002212524414 12.57450008392333984
v 675.8499755859375 7.07679986953735352 11.45569992065429688
v 675.8499755859375 8.18920040130615236 10.4165000915527344
v 675.8499755859375 2 19.5
v 675.8499755859375 2.651400089263916 17.93120002746582032
v 675.8499755859375 9.38179969787597656 9.4538002014160156
v 675.8499755859375 10.65799999237060544 8.56550025939941408
v 675.8499755859375 11.67169952392578128 7.94810009002685552
v 675.8499755859375 13.10690021514892578 7.1868000030517578
v 675.8499755859375 14.63790035247802736 6.49949979782104496
v 675.8499755859375 16.27239990234375 5.8863000869750976
v 675.8499755859375 18.0167999267578125 5.34929990768432616
v 675.8499755859375 19.87849998474121088 4.89120006561279296
v 675.8499755859375 21.86490058898925776 4.5155000686645508
v 675.8499755859375 23.98410034179687504 4.22620010375976564
v 675.8499755859375 26.171600341796875 4.03319978713989258
v 677.8499755859375 8.18920040130615236 10.4165000915527344
v 677.8499755859375 7.07679986953735352 11.45569992065429688
v 677.8499755859375 9.38179969787597656 9.4538002014160156
v 677.8499755859375 6.04180002212524414 12.57450008392333984
v 677.8499755859375 5.08239984512329102 13.77649974822998048
v 677.8499755859375 4.19740009307861328 15.06639957427978516
v 677.8499755859375 14.63790035247802736 6.49949979782104496
v 677.8499755859375 13.10690021514892578 7.1868000030517578
v 677.8499755859375 16.27239990234375 5.8863000869750976
v 677.8499755859375 2 19.5
v 677.8499755859375 2.651400089263916 17.93120002746582032
v 677.8499755859375 3.3868000507354736 16.4493999481201172
v 677.8499755859375 11.67169952392578128 7.94810009002685552
v 677.8499755859375 10.65799999237060544 8.56550025939941408
v 677.8499755859375 21.86490058898925776 4.5155000686645508
v 677.8499755859375 19.87849998474121088 4.89120006561279296
v 677.8499755859375 18.0167999267578125 5.34929990768432616
v 677.8499755859375 26.171600341796875 4.03319978713989258
v 677.8499755859375 23.98410034179687504 4.22620010375976564
v 579.29998779296875 4.19740009307861328 15.06639957427978516
v 579.29998779296875 5.08239984512329102 13.77649974822998048
v 579.29998779296875 3.3868000507354736 16.4493999481201172
v 579.29998779296875 6.04180002212524414 12.57450008392333984
v 579.29998779296875 7.07679986953735352 11.45569992065429688
v 579.29998779296875 8.18920040130615236 10.4165000915527344
v 579.29998779296875 2 19.5
v 579.29998779296875 2.651400089263916 17.93120002746582032
v 579.29998779296875 9.38179969787597656 9.4538002014160156
v 579.29998779296875 10.65799999237060544 8.56550025939941408
v 579.29998779296875 11.67169952392578128 7.94810009002685552
v 579.29998779296875 13.10690021514892578 7.1868000030517578
v 579.29998779296875 14.63790035247802736 6.49949979782104496
v 579.29998779296875 16.27239990234375 5.8863000869750976
v 579.29998779296875 18.0167999267578125 5.34929990768432616
v 579.29998779296875 19.87849998474121088 4.89120006561279296
v 579.29998779296875 21.86490058898925776 4.5155000686645508
v 579.29998779296875 23.98410034179687504 4.22620010375976564
v 579.29998779296875 26.171600341796875 4.03319978713989258
v 581.29998779296875 8.18920040130615236 10.4165000915527344
v 581.29998779296875 7.07679986953735352 11.45569992065429688
v 581.29998779296875 9.38179969787597656 9.4538002014160156
v 581.29998779296875 6.04180002212524414 12.57450008392333984
v 581.29998779296875 5.08239984512329102 13.77649974822998048
v 581.29998779296875 4.19740009307861328 15.06639957427978516
v 581.29998779296875 14.63790035247802736 6.49949979782104496
v 581.29998779296875 13.10690021514892578 7.1868000030517578
v 581.29998779296875 16.27239990234375 5.8863000869750976
v 581.29998779296875 2 19.5
v 581.29998779296875 2.651400089263916 17.93120002746582032
v 581.29998779296875 3.3868000507354736 16.4493999481201172
v 581.29998779296875 11.67169952392578128 7.94810009002685552
v 581.29998779296875 10.65799999237060544 8.56550025939941408
v 581.29998779296875 21.86490058898925776 4.5155000686645508
v 581.29998779296875 19.87849998474121088 4.89120006561279296
v 581.29998779296875 18.0167999267578125 5.34929990768432616
v 581.29998779296875 26.171600341796875 4.03319978713989258
v 581.29998779296875 23.98410034179687504 4.22620010375976564
v 772.4000244140625 4.19740009307861328 15.06639957427978516
v 772.4000244140625 5.08239984512329102 13.77649974822998048
v 772.4000244140625 3.3868000507354736 16.4493999481201172
v 772.4000244140625 6.04180002212524414 12.57450008392333984
v 772.4000244140625 7.07679986953735352 11.45569992065429688
v 772.4000244140625 8.18920040130615236 10.4165000915527344
v 772.4000244140625 2 19.5
v 772.4000244140625 2.651400089263916 17.93120002746582032
v 772.4000244140625 9.38179969787597656 9.4538002014160156
v 772.4000244140625 10.65799999237060544 8.56550025939941408
v 772.4000244140625 11.67169952392578128 7.94810009002685552
v 772.4000244140625 13.10690021514892578 7.1868000030517578
v 772.4000244140625 14.63790035247802736 6.49949979782104496
v 772.4000244140625 16.27239990234375 5.8863000869750976
v 772.4000244140625 18.0167999267578125 5.34929990768432616
v 772.4000244140625 19.87849998474121088 4.89120006561279296
v 772.4000244140625 21.86490058898925776 4.5155000686645508
v 772.4000244140625 23.98410034179687504 4.22620010375976564
v 772.4000244140625 26.171600341796875 4.03319978713989258
v 774.4000244140625 8.18920040130615236 10.4165000915527344
v 774.4000244140625 7.07679986953735352 11.45569992065429688
v 774.4000244140625 9.38179969787597656 9.4538002014160156
v 774.4000244140625 6.04180002212524414 12.57450008392333984
v 774.4000244140625 5.08239984512329102 13.77649974822998048
v 774.4000244140625 4.19740009307861328 15.06639957427978516
v 774.4000244140625 14.63790035247802736 6.49949979782104496
v 774.4000244140625 13.10690021514892578 7.1868000030517578
v 774.4000244140625 16.27239990234375 5.8863000869750976
v 774.4000244140625 2 19.5
v 774.4000244140625 2.651400089263916 17.93120002746582032
v 774.4000244140625 3.3868000507354736 16.4493999481201172
v 774.4000244140625 11.67169952392578128 7.94810009002685552
v 774.4000244140625 10.65799999237060544 8.56550025939941408
v 774.4000244140625 21.86490058898925776 4.5155000686645508
v 774.4000244140625 19.87849998474121088 4.89120006561279296
v 774.4000244140625 18.0167999267578125 5.34929990768432616
v 774.4000244140625 26.171600341796875 4.03319978713989258
v 774.4000244140625 23.98410034179687504 4.22620010375976564
v 868.95001220703124992 4.19740009307861328 15.06639957427978516
v 868.95001220703124992 5.08239984512329102 13.77649974822998048
v 868.95001220703124992 3.3868000507354736 16.4493999481201172
v 868.95001220703124992 6.04180002212524414 12.57450008392333984
v 868.95001220703124992 7.07679986953735352 11.45569992065429688
v 868.95001220703124992 8.18920040130615236 10.4165000915527344
v 868.95001220703124992 2 19.5
v 868.95001220703124992 2.651400089263916 17.93120002746582032
v 868.95001220703124992 9.38179969787597656 9.4538002014160156
v 868.95001220703124992 10.65799999237060544 8.56550025939941408
v 868.95001220703124992 11.67169952392578128 7.94810009002685552
v 868.95001220703124992 13.10690021514892578 7.1868000030517578
v 868.95001220703124992 14.63790035247802736 6.49949979782104496
v 868.95001220703124992 16.27239990234375 5.8863000869750976
v 868.95001220703124992 18.0167999267578125 5.34929990768432616
v 868.95001220703124992 19.87849998474121088 4.89120006561279296
v 868.95001220703124992 21.86490058898925776 4.5155000686645508
v 868.95001220703124992 23.98410034179687504 4.22620010375976564
v 868.95001220703124992 26.171600341796875 4.03319978713989258
v 579.25982666015625 0.08039999753236771 4
v 579.25982666015625 0 4
v 579.25982666015625 0.4566999971866608 4
v 579.25982666015625 26.63960075378417968 4
v 579.25982666015625 26.71829986572265624 4
v 579.25982666015625 26.71999931335449216 4
v 579.25982666015625 26.71999931335449216 3.99830007553100592
v 579.25982666015625 26.71999931335449216 0
v 579.25982666015625 25.333099365234375 0
v 579.25982666015625 18.84219932556152336 0
v 579.25982666015625 2.69350004196166992 0
v 579.25982666015625 2.02220010757446289 0
v 579.25982666015625 2 0
v 579.25982666015625 1.9785000085830688 0
v 579.25982666015625 0 0
v 579.25982666015625 0 3.99830007553100592
# 230 vertices

vn 0 0 1
vn 0 1 0
vn 1 0 0
vn 0 -1 0
vn 0 0 -1
vn -1 0 0
vn 0 0.92354995012283328 0.3834781050682068
vn 0 0.89575314521789552 0.44455179572105408
vn 0 0.86273175477981568 0.50566184520721432
vn 0 0.82458060979843136 0.5657445192337036
vn 0 0.78156614303588864 0.62382239103317264
vn 0 0.73406344652175904 0.67908090353012088
vn 0 0.68265521526336672 0.73074060678482048
vn 0 0.62811839580535888 0.77811777591705328
vn 0 0.57128494977951048 0.82075178623199456
vn 0 0.52017146348953248 0.8540618419647216
vn 0 0.46860307455062864 0.88340884447097776
vn 0 0.4095468819141388 0.91228908300399776
vn 0 0.35125526785850524 0.93627971410751344
vn 0 0.29421675205230712 0.9557387232780456
vn 0 0.2389380931854248 0.97103482484817504
vn 0 0.18584133684635164 0.98257976770401008
vn 0 0.1352592557668686 0.99081021547317504
vn 0 0.08788716793060303 0.9961304068565368
vn 0 0.06042911484837532 0.99817246198654176
# 25 vertex normals

g obj_13616963
s 1
f 1//1 2//1 3//1
f 3//1 2//1 4//1
f 3//1 4//1 5//1
f 5//1 4//1 6//1
f 5//1 6//1 7//1
f 7//1 6//1 8//1
f 7//1 8//1 1//1
f 1//1 8//1 2//1
f 9//1 10//1 11//1
f 11//1 10//1 12//1
f 11//1 12//1 13//1
f 13//1 12//1 14//1
f 13//1 14//1 15//1
f 15//1 14//1 16//1
f 15//1 16//1 9//1
f 9//1 16//1 10//1
f 17//1 18//1 19//1
f 19//1 18//1 20//1
f 19//1 20//1 21//1
f 21//1 20//1 22//1
f 21//1 22//1 23//1
f 23//1 22//1 24//1
f 23//1 24//1 17//1
f 17//1 24//1 18//1
f 25//2 26//2 6//2
f 6//2 26//2 27//2
f 6//2 27//2 8//2
f 8//2 27//2 28//2
f 8//2 28//2 14//2
f 14//2 28//2 16//2
f 16//2 28//2 29//2
f 16//2 29//2 22//2
f 22//2 29//2 30//2
f 22//2 30//2 24//2
f 24//2 30//2 31//2
f 32//3 33//3 34//3
f 34//3 33//3 35//3
f 36//3 37//3 34//3
f 34//3 37//3 38//3
f 34//3 38//3 32//3
f 35//3 39//3 34//3
f 34//3 39//3 40//3
f 34//3 40//3 41//3
f 41//3 40//3 42//3
f 41//3 42//3 43//3
f 44//3 45//3 36//3
f 36//3 45//3 46//3
f 36//3 46//3 47//3
f 47//3 48//3 36//3
f 36//3 48//3 49//3
f 36//3 49//3 37//3
f 26//3 50//3 36//3
f 36//3 50//3 51//3
f 36//3 51//3 44//3
f 25//3 52//3 26//3
f 26//3 52//3 53//3
f 26//3 53//3 50//3
f 54//4 12//4 55//4
f 55//4 12//4 2//4
f 41//4 56//4 34//4
f 34//4 56//4 4//4
f 34//4 4//4 57//4
f 57//4 4//4 2//4
f 57//4 2//4 58//4
f 58//4 2//4 12//4
f 58//4 12//4 59//4
f 60//4 61//4 10//4
f 10//4 61//4 20//4
f 18//4 62//4 63//4
f 12//4 10//4 59//4
f 59//4 10//4 20//4
f 59//4 20//4 64//4
f 64//4 20//4 18//4
f 64//4 18//4 65//4
f 65//4 18//4 63//4
f 66//5 67//5 68//5
f 68//5 67//5 69//5
f 68//5 69//5 70//5
f 70//5 69//5 30//5
f 70//5 30//5 71//5
f 71//5 30//5 29//5
f 71//5 29//5 66//5
f 66//5 29//5 67//5
f 72//5 73//5 74//5
f 74//5 73//5 67//5
f 74//5 67//5 75//5
f 75//5 67//5 29//5
f 75//5 29//5 76//5
f 76//5 29//5 28//5
f 76//5 28//5 72//5
f 72//5 28//5 73//5
f 77//5 78//5 79//5
f 79//5 78//5 73//5
f 79//5 73//5 80//5
f 80//5 73//5 28//5
f 80//5 28//5 81//5
f 81//5 28//5 27//5
f 81//5 27//5 77//5
f 77//5 27//5 78//5
f 78//5 27//5 26//5
f 78//5 26//5 36//5
f 64//5 69//5 67//5
f 64//5 67//5 59//5
f 59//5 67//5 73//5
f 59//5 73//5 58//5
f 58//5 73//5 78//5
f 58//5 78//5 57//5
f 57//5 78//5 36//5
f 57//5 36//5 34//5
f 82//6 83//6 20//6
f 82//6 20//6 84//6
f 83//6 85//6 20//6
f 20//6 85//6 86//6
f 20//6 86//6 87//6
f 61//6 88//6 20//6
f 20//6 88//6 89//6
f 20//6 89//6 84//6
f 87//6 90//6 20//6
f 20//6 90//6 91//6
f 20//6 91//6 92//6
f 92//6 93//6 20//6
f 20//6 93//6 94//6
f 20//6 94//6 95//6
f 95//6 96//6 20//6
f 20//6 96//6 97//6
f 20//6 97//6 98//6
f 98//6 99//6 20//6
f 20//6 99//6 100//6
f 20//6 100//6 22//6
f 101//3 102//3 10//3
f 101//3 10//3 103//3
f 102//3 104//3 10//3
f 10//3 104//3 105//3
f 10//3 105//3 106//3
f 107//3 108//3 10//3
f 107//3 10//3 109//3
f 110//3 60//3 111//3
f 111//3 60//3 10//3
f 111//3 10//3 112//3
f 112//3 10//3 106//3
f 108//3 113//3 10//3
f 10//3 113//3 114//3
f 10//3 114//3 103//3
f 115//3 116//3 10//3
f 10//3 116//3 117//3
f 10//3 117//3 109//3
f 16//3 118//3 10//3
f 10//3 118//3 119//3
f 10//3 119//3 115//3
f 88//1 61//1 110//1
f 110//1 61//1 60//1
f 120//6 121//6 65//6
f 120//6 65//6 122//6
f 121//6 123//6 65//6
f 65//6 123//6 124//6
f 65//6 124//6 125//6
f 63//6 126//6 65//6
f 65//6 126//6 127//6
f 65//6 127//6 122//6
f 125//6 128//6 65//6
f 65//6 128//6 129//6
f 65//6 129//6 130//6
f 130//6 131//6 65//6
f 65//6 131//6 132//6
f 65//6 132//6 133//6
f 133//6 134//6 65//6
f 65//6 134//6 135//6
f 65//6 135//6 136//6
f 136//6 137//6 65//6
f 65//6 137//6 138//6
f 65//6 138//6 31//6
f 139//3 140//3 18//3
f 139//3 18//3 141//3
f 140//3 142//3 18//3
f 18//3 142//3 143//3
f 18//3 143//3 144//3
f 145//3 146//3 18//3
f 145//3 18//3 147//3
f 148//3 62//3 149//3
f 149//3 62//3 18//3
f 149//3 18//3 150//3
f 150//3 18//3 144//3
f 146//3 151//3 18//3
f 18//3 151//3 152//3
f 18//3 152//3 141//3
f 153//3 154//3 18//3
f 18//3 154//3 155//3
f 18//3 155//3 147//3
f 24//3 156//3 18//3
f 18//3 156//3 157//3
f 18//3 157//3 153//3
f 126//1 63//1 148//1
f 148//1 63//1 62//1
f 158//6 159//6 12//6
f 158//6 12//6 160//6
f 159//6 161//6 12//6
f 12//6 161//6 162//6
f 12//6 162//6 163//6
f 54//6 164//6 12//6
f 12//6 164//6 165//6
f 12//6 165//6 160//6
f 163//6 166//6 12//6
f 12//6 166//6 167//6
f 12//6 167//6 168//6
f 168//6 169//6 12//6
f 12//6 169//6 170//6
f 12//6 170//6 171//6
f 171//6 172//6 12//6
f 12//6 172//6 173//6
f 12//6 173//6 174//6
f 174//6 175//6 12//6
f 12//6 175//6 176//6
f 12//6 176//6 14//6
f 177//3 178//3 2//3
f 177//3 2//3 179//3
f 178//3 180//3 2//3
f 2//3 180//3 181//3
f 2//3 181//3 182//3
f 183//3 184//3 2//3
f 183//3 2//3 185//3
f 186//3 55//3 187//3
f 187//3 55//3 2//3
f 187//3 2//3 188//3
f 188//3 2//3 182//3
f 184//3 189//3 2//3
f 2//3 189//3 190//3
f 2//3 190//3 179//3
f 191//3 192//3 2//3
f 2//3 192//3 193//3
f 2//3 193//3 185//3
f 8//3 194//3 2//3
f 2//3 194//3 195//3
f 2//3 195//3 191//3
f 164//1 54//1 186//1
f 186//1 54//1 55//1
f 196//6 197//6 4//6
f 196//6 4//6 198//6
f 197//6 199//6 4//6
f 4//6 199//6 200//6
f 4//6 200//6 201//6
f 56//6 202//6 4//6
f 4//6 202//6 203//6
f 4//6 203//6 198//6
f 201//6 204//6 4//6
f 4//6 204//6 205//6
f 4//6 205//6 206//6
f 206//6 207//6 4//6
f 4//6 207//6 208//6
f 4//6 208//6 209//6
f 209//6 210//6 4//6
f 4//6 210//6 211//6
f 4//6 211//6 212//6
f 212//6 213//6 4//6
f 4//6 213//6 214//6
f 4//6 214//6 6//6
f 202//1 56//1 43//1
f 43//1 56//1 41//1
f 202//7 43//7 42//7
f 202//7 42//7 203//7
f 203//8 42//8 40//8
f 203//8 40//8 198//8
f 198//9 40//9 39//9
f 198//9 39//9 196//9
f 196//10 39//10 35//10
f 196//10 35//10 197//10
f 197//11 35//11 33//11
f 197//11 33//11 199//11
f 199//12 33//12 32//12
f 199//12 32//12 200//12
f 200//13 32//13 38//13
f 200//13 38//13 201//13
f 201//14 38//14 37//14
f 201//14 37//14 204//14
f 204//15 37//15 49//15
f 204//15 49//15 205//15
f 205//16 49//16 48//16
f 205//16 48//16 206//16
f 206//17 48//17 47//17
f 206//17 47//17 207//17
f 207//18 47//18 46//18
f 207//18 46//18 208//18
f 208//19 46//19 45//19
f 208//19 45//19 209//19
f 209//20 45//20 44//20
f 209//20 44//20 210//20
f 210//21 44//21 51//21
f 210//21 51//21 211//21
f 211//22 51//22 50//22
f 211//22 50//22 212//22
f 212//23 50//23 53//23
f 212//23 53//23 213//23
f 213//24 53//24 52//24
f 213//24 52//24 214//24
f 214//25 52//25 25//25
f 214//25 25//25 6//25
f 164//7 186//7 187//7
f 164//7 187//7 165//7
f 165//8 187//8 188//8
f 165//8 188//8 160//8
f 160//9 188//9 182//9
f 160//9 182//9 158//9
f 158//10 182//10 181//10
f 158//10 181//10 159//10
f 159//11 181//11 180//11
f 159//11 180//11 161//11
f 161//12 180//12 178//12
f 161//12 178//12 162//12
f 162//13 178//13 177//13
f 162//13 177//13 163//13
f 163//14 177//14 179//14
f 163//14 179//14 166//14
f 166//15 179//15 190//15
f 166//15 190//15 167//15
f 167//16 190//16 189//16
f 167//16 189//16 168//16
f 168//17 189//17 184//17
f 168//17 184//17 169//17
f 169//18 184//18 183//18
f 169//18 183//18 170//18
f 170//19 183//19 185//19
f 170//19 185//19 171//19
f 171//20 185//20 193//20
f 171//20 193//20 172//20
f 172//21 193//21 192//21
f 172//21 192//21 173//21
f 173//22 192//22 191//22
f 173//22 191//22 174//22
f 174//23 191//23 195//23
f 174//23 195//23 175//23
f 175//24 195//24 194//24
f 175//24 194//24 176//24
f 176//25 194//25 8//25
f 176//25 8//25 14//25
f 126//7 148//7 149//7
f 126//7 149//7 127//7
f 127//8 149//8 150//8
f 127//8 150//8 122//8
f 122//9 150//9 144//9
f 122//9 144//9 120//9
f 120//10 144//10 143//10
f 120//10 143//10 121//10
f 121//11 143//11 142//11
f 121//11 142//11 123//11
f 123//12 142//12 140//12
f 123//12 140//12 124//12
f 124//13 140//13 139//13
f 124//13 139//13 125//13
f 125//14 139//14 141//14
f 125//14 141//14 128//14
f 128//15 141//15 152//15
f 128//15 152//15 129//15
f 129//16 152//16 151//16
f 129//16 151//16 130//16
f 130//17 151//17 146//17
f 130//17 146//17 131//17
f 131//18 146//18 145//18
f 131//18 145//18 132//18
f 132//19 145//19 147//19
f 132//19 147//19 133//19
f 133//20 147//20 155//20
f 133//20 155//20 134//20
f 134//21 155//21 154//21
f 134//21 154//21 135//21
f 135//22 154//22 153//22
f 135//22 153//22 136//22
f 136//23 153//23 157//23
f 136//23 157//23 137//23
f 137//24 157//24 156//24
f 137//24 156//24 138//24
f 138//25 156//25 24//25
f 138//25 24//25 31//25
f 88//7 110//7 111//7
f 88//7 111//7 89//7
f 89//8 111//8 112//8
f 89//8 112//8 84//8
f 84//9 112//9 106//9
f 84//9 106//9 82//9
f 82//10 106//10 105//10
f 82//10 105//10 83//10
f 83//11 105//11 104//11
f 83//11 104//11 85//11
f 85//12 104//12 102//12
f 85//12 102//12 86//12
f 86//13 102//13 101//13
f 86//13 101//13 87//13
f 87//14 101//14 103//14
f 87//14 103//14 90//14
f 90//15 103//15 114//15
f 90//15 114//15 91//15
f 91//16 114//16 113//16
f 91//16 113//16 92//16
f 92//17 113//17 108//17
f 92//17 108//17 93//17
f 93//18 108//18 107//18
f 93//18 107//18 94//18
f 94//19 107//19 109//19
f 94//19 109//19 95//19
f 95//20 109//20 117//20
f 95//20 117//20 96//20
f 96//21 117//21 116//21
f 96//21 116//21 97//21
f 97//22 116//22 115//22
f 97//22 115//22 98//22
f 98//23 115//23 119//23
f 98//23 119//23 99//23
f 99//24 119//24 118//24
f 99//24 118//24 100//24
f 100//25 118//25 16//25
f 100//25 16//25 22//25
f 80//4 81//4 7//4
f 7//4 81//4 5//4
f 81//6 77//6 5//6
f 5//6 77//6 3//6
f 77//2 79//2 3//2
f 3//2 79//2 1//2
f 79//3 80//3 1//3
f 1//3 80//3 7//3
f 75//4 76//4 15//4
f 15//4 76//4 13//4
f 76//6 72//6 13//6
f 13//6 72//6 11//6
f 72//2 74//2 11//2
f 11//2 74//2 9//2
f 74//3 75//3 9//3
f 9//3 75//3 15//3
f 70//4 71//4 23//4
f 23//4 71//4 21//4
f 71//6 66//6 21//6
f 21//6 66//6 19//6
f 66//2 68//2 19//2
f 19//2 68//2 17//2
f 68//3 70//3 17//3
f 17//3 70//3 23//3
f 65//1 215//1 216//1
f 217//1 65//1 31//1
f 65//1 217//1 215//1
f 31//1 218//1 217//1
f 31//1 219//1 218//1
f 31//1 220//1 219//1
f 221//2 31//2 30//2
f 31//2 221//2 220//2
f 30//2 222//2 221//2
f 30//5 223//5 222//5
f 224//5 30//5 69//5
f 30//5 224//5 223//5
f 69//5 225//5 224//5
f 69//5 226//5 225//5
f 69//5 227//5 226//5
f 228//5 69//5 64//5
f 69//5 228//5 227//5
f 229//4 64//4 65//4
f 64//5 229//5 228//5
f 230//4 65//4 216//4
f 65//4 230//4 229//4
f 221//6 222//6 223//6
f 228//6 229//6 230//6
f 219//6 220//6 221//6
f 230//6 216//6 215//6
f 228//6 230//6 215//6
f 228//6 215//6 217//6
f 228//6 217//6 218//6
f 227//6 228//6 218//6
f 226//6 227//6 218//6
f 225//6 226//6 218//6
f 224//6 225//6 218//6
f 223//6 224//6 218//6
f 221//6 223//6 218//6
f 221//6 218//6 219//6
#468 polygons

